<?xml version="1.0" encoding="UTF-8"?>
<svg width="100px" height="100px" viewBox="0 0 100 100" version="1.1" xmlns="http://www.w3.org/2000/svg" xmlns:xlink="http://www.w3.org/1999/xlink">
    <!-- Generator: Sketch 52.5 (67469) - http://www.bohemiancoding.com/sketch -->
    <title>Wedding Guests Icon</title>
    <desc>Created with Sketch.</desc>
    <defs>
        <circle id="path-1" cx="50" cy="50" r="50"></circle>
        <polygon id="path-3" points="0.616469444 0.375267857 38.0731667 0.375267857 38.0731667 22.2034821 0.616469444 22.2034821"></polygon>
        <polygon id="path-5" points="0.657017544 0.805555556 49.5307018 0.805555556 49.5307018 31.0085069 0.657017544 31.0085069"></polygon>
        <polygon id="path-7" points="0.735652174 0.36103125 19.4504348 0.36103125 19.4504348 7.5 0.735652174 7.5"></polygon>
        <polygon id="path-9" points="0 60 85 60 85 1.25 0 1.25"></polygon>
    </defs>
    <g id="Page-1" stroke="none" stroke-width="1" fill="none" fill-rule="evenodd">
        <g id="Topics_Section" transform="translate(-341.000000, -314.000000)">
            <g id="Wedding-Guests-Icon" transform="translate(341.000000, 314.000000)">
                <mask id="mask-2" fill="white">
                    <use xlink:href="#path-1"></use>
                </mask>
                <use id="Mask" fill="#F4EFE6" xlink:href="#path-1"></use>
                <g id="Group-36" mask="url(#mask-2)">
                    <g transform="translate(7.000000, 21.000000)">
                        <path d="M35.4439183,33.75 L2.05608175,33.75 C0.920710821,33.75 0,32.8662016 0,31.7744993 L0,13.2255007 C0,12.1337984 0.920710821,11.25 2.05608175,11.25 L35.4439183,11.25 C36.5792892,11.25 37.5,12.1337984 37.5,13.2255007 L37.5,31.7744993 C37.5,32.8662016 36.5792892,33.75 35.4439183,33.75" id="Fill-1" stroke="none" fill="#D1E1F1" fill-rule="evenodd"></path>
                        <path d="M23.7479745,21.3744719 C23.7472121,21.3488232 23.7464497,21.3231744 23.744925,21.2967713 C23.7434002,21.2809294 23.7418755,21.2643331 23.7403507,21.2477369 C23.738826,21.2251056 23.7365389,21.20172 23.7342518,21.1790887 C23.7319646,21.1624925 23.7304399,21.1451418 23.7281528,21.1285456 C23.7251033,21.1066687 23.7220538,21.0840374 23.7182419,21.059143 L23.7106182,21.0116174 C23.7037568,20.9754074 23.6976578,20.9391973 23.6892717,20.9029873 L23.6778361,20.8554617 C23.6724995,20.8335848 23.6679252,20.8117079 23.6618263,20.7905854 C23.657252,20.7732348 23.6526778,20.7566385 23.6465788,20.7347616 C23.6404798,20.7159022 23.6351432,20.6970428 23.6290442,20.6781835 C23.6229452,20.6593241 23.6176086,20.6404647 23.6107472,20.6216053 L23.5954997,20.5778515 C23.5954997,20.5778515 23.5772028,20.5257996 23.5711038,20.5107121 L23.5482326,20.4548884 C23.5345098,20.4216958 23.5200247,20.3885033 23.5047773,20.3553108 L23.4826684,20.3070308 C23.4742823,20.2904345 23.4658962,20.2738383 23.4529359,20.2489439 C23.4453121,20.2338564 23.4376884,20.2187689 23.4293023,20.2036814 C23.418629,20.1840676 23.4079558,20.1644538 23.3972826,20.1455944 L23.3698371,20.0995775 C23.3591639,20.0807182 23.3484907,20.0626132 23.3362927,20.0445081 L23.3126591,20.0075438 C23.2875008,19.9690706 23.2608177,19.9313518 23.2341346,19.8936331 L23.2112634,19.8627037 C23.1967783,19.8438443 23.1822932,19.8249849 23.1617091,19.7993361 L23.1388379,19.7699155 C23.1235904,19.7518105 23.108343,19.7337055 23.0930955,19.7163549 L23.0618382,19.6801448 C23.0458283,19.6620398 23.0298185,19.6446892 23.0138086,19.6280929 L22.9825513,19.5964092 C22.9467197,19.5594448 22.9101258,19.5239891 22.8727695,19.4892879 L22.8613339,19.4787266 L22.8620962,19.4787266 L22.8537101,19.4719372 C22.8537101,19.4711829 22.8537101,19.4711829 22.8529478,19.4711829 L22.8468488,19.4651479 L22.8460864,19.4659022 C22.6394831,19.2810803 22.4061968,19.1271877 22.1523263,19.0095051 C22.0943859,18.983102 22.0311089,18.9566989 21.9571587,18.9295413 C21.6400112,18.8111044 21.3099034,18.75 20.9767461,18.75 L20.9614986,18.75 C20.3782827,18.7530175 19.803453,18.9438745 19.3414545,19.2863609 C19.1104553,19.4583585 18.9122381,19.6635486 18.7506149,19.8974049 L18.7498525,19.8966506 L18.7490902,19.8974049 C18.5874669,19.664303 18.3892498,19.4583585 18.1574882,19.2863609 C17.6916778,18.9401026 17.1107491,18.75 16.5221966,18.75 C16.115089,18.75 15.7194171,18.8375075 15.3466164,19.0095051 C13.9766308,19.6416717 13.3713061,21.2356669 13.9964525,22.5633675 C14.7512025,24.1641521 17.1503925,25.4752565 18.1468149,25.9648461 C18.4830217,26.1300543 18.7063972,26.22586 18.7384169,26.2386844 L18.7346051,26.25 L18.7498525,26.2432106 L18.7643376,26.25 L18.7612881,26.2386844 C18.7849217,26.2288775 19.0082972,26.1338262 19.3521278,25.9648461 C20.0496997,25.6223597 21.0689933,25.0641219 21.9602082,24.348974 C22.302514,24.0743814 22.6013644,23.7960169 22.8468488,23.5206699 L22.8476111,23.5214243 L22.8544725,23.5131261 C22.8864922,23.4761617 22.9185119,23.4399517 22.9535811,23.3984611 L22.9627296,23.3871454 C22.9871255,23.3569704 23.0122839,23.3275498 23.0359175,23.2973748 L23.0587887,23.2687085 C23.0801351,23.241551 23.1007192,23.2136391 23.1220657,23.1857272 L23.1434121,23.1578153 C23.1685705,23.1231141 23.1929664,23.0884128 23.2211743,23.0491853 C23.2463326,23.0122209 23.2707286,22.9760109 23.2935998,22.9390465 L23.3141839,22.9066083 C23.3301937,22.8809596 23.3462035,22.8545564 23.361451,22.8281533 L23.3843222,22.7889258 C23.3988073,22.763277 23.4132924,22.7376282 23.4270152,22.7119795 L23.4468369,22.6757695 C23.4658962,22.6388051 23.4849556,22.6010863 23.5024902,22.5633675 C23.5207871,22.5248944 23.5375593,22.4871756 23.5535692,22.4487025 L23.5680543,22.4117381 C23.5787275,22.3853349 23.5886384,22.3581774 23.5985492,22.3310199 L23.6130343,22.2895293 C23.6221828,22.2631261 23.6305689,22.236723 23.6381927,22.2095655 L23.6503907,22.1710923 C23.6595391,22.1378998 23.6686876,22.1047073 23.6770737,22.0707604 L23.681648,22.051901 C23.6907965,22.0134279 23.6991826,21.9742004 23.7060439,21.9342185 L23.7121429,21.8972541 C23.7167172,21.8700966 23.7212914,21.842939 23.7251033,21.8150272 L23.7312023,21.770519 C23.7342518,21.7448702 23.7365389,21.7199759 23.738826,21.6943271 L23.7426379,21.6490646 C23.744925,21.6211527 23.7464497,21.5932408 23.7479745,21.5645745 L23.7487369,21.5298733 C23.7502616,21.4914001 23.7502616,21.452927 23.7494992,21.4152082 L23.7479745,21.3744719 Z" id="Fill-3" stroke="none" fill="#003B57" fill-rule="evenodd"></path>
                        <path d="M25,56.25 L11.25,56.25 L11.25,54.5952481 C11.25,52.0574012 12.8514253,50 14.8276349,50 L22.1154705,50 C23.7087127,50 25,51.6589571 25,53.7047939 L25,56.25 Z" id="Fill-5" stroke="none" fill="#003B57" fill-rule="evenodd"></path>
                        <path d="M22.5,35.625 C22.5,33.8997887 21.1011545,32.5 19.375,32.5 C17.6488455,32.5 16.25,33.8997887 16.25,35.625 C16.25,37.3511545 17.6488455,38.75 19.375,38.75 C21.1011545,38.75 22.5,37.3511545 22.5,35.625 Z" id="Stroke-7" stroke="#003B57" stroke-width="2" fill="none"></path>
                        <path d="M19.375,53.75 L19.375,37.5" id="Stroke-9" stroke="#003B57" stroke-width="2" fill="none"></path>
                        <g id="Group-13" stroke="none" stroke-width="1" fill="none" fill-rule="evenodd" transform="translate(47.500000, 11.250000)">
                            <mask id="mask-4" fill="white">
                                <use xlink:href="#path-3"></use>
                            </mask>
                            <g id="Clip-12"></g>
                            <path d="M36.0193306,22.2034821 L2.66935833,22.2034821 C1.535275,22.2034821 0.616469444,21.3460714 0.616469444,20.2869643 L0.616469444,2.29178571 C0.616469444,1.23267857 1.535275,0.375267857 2.66935833,0.375267857 L36.0193306,0.375267857 C37.1534139,0.375267857 38.0739417,1.23267857 38.0739417,2.29178571 L38.0739417,20.2869643 C38.0739417,21.3460714 37.1534139,22.2034821 36.0193306,22.2034821" id="Fill-11" fill="#D1E1F1" mask="url(#mask-4)"></path>
                        </g>
                        <path d="M72.4979744,21.3744719 C72.497212,21.3488232 72.4964496,21.3231744 72.4949248,21.2967713 C72.4933999,21.2809294 72.4918751,21.2643331 72.4903503,21.2477369 C72.4888255,21.2251056 72.4865383,21.20172 72.4842511,21.1790887 C72.4819638,21.1624925 72.4812014,21.1451418 72.4789142,21.1285456 C72.4758646,21.1066687 72.4720525,21.0840374 72.4682405,21.059143 L72.4606164,21.0116174 C72.4537547,20.9754074 72.4484179,20.9391973 72.439269,20.9029873 L72.4278329,20.8554617 C72.422496,20.8335848 72.418684,20.8117079 72.4125847,20.7905854 C72.4080103,20.7732348 72.4026734,20.7566385 72.3965741,20.7347616 C72.3904749,20.7159022 72.3859004,20.6970428 72.3798012,20.6781835 C72.3729395,20.6593241 72.3676026,20.6404647 72.360741,20.6216053 L72.3462552,20.5778515 C72.3462552,20.5778515 72.327195,20.5257996 72.3218582,20.5107121 L72.2982235,20.4548884 C72.2852626,20.4216958 72.2700144,20.3885033 72.2555287,20.3553108 L72.2326565,20.3070308 C72.2250324,20.2904345 72.2158835,20.2738383 72.2029226,20.2489439 C72.1960609,20.2338564 72.1884368,20.2187689 72.1792879,20.2036814 C72.1686142,20.1840676 72.1587029,20.1644538 72.1472668,20.1455944 L72.1198201,20.0995775 C72.1091464,20.0807182 72.0992351,20.0626132 72.0862741,20.0445081 L72.0634019,20.0075438 C72.03748,19.9690706 72.0107958,19.9313518 71.9841115,19.8936331 L71.9612393,19.8627037 C71.9467535,19.8438443 71.9330302,19.8249849 71.9116827,19.7993361 L71.8888105,19.7699155 C71.8743248,19.7518105 71.8583142,19.7337055 71.8438284,19.7163549 L71.8125697,19.6801448 C71.7957968,19.6620398 71.7805486,19.6446892 71.7637756,19.6280929 L71.7325169,19.5964092 C71.6966837,19.5594448 71.6600882,19.5239891 71.6234926,19.4892879 L71.611294,19.4787266 L71.6120565,19.4787266 L71.60367,19.4719372 C71.60367,19.4711829 71.6029076,19.4711829 71.6029076,19.4711829 L71.5968083,19.4651479 L71.5960459,19.4659022 C71.3894334,19.2810803 71.1561366,19.1271877 70.9022547,19.0095051 C70.8443117,18.983102 70.7810319,18.9566989 70.7070783,18.9295413 C70.3899167,18.8111044 70.0605565,18.75 69.7266218,18.75 L69.7121361,18.75 C69.1281316,18.7530175 68.5532761,18.9438745 68.0920194,19.2863609 C67.8602474,19.4583585 67.6620213,19.6635486 67.5003909,19.8974049 L67.4996284,19.8966506 L67.498866,19.8974049 C67.3372356,19.664303 67.1397719,19.4583585 66.9072375,19.2863609 C66.4421687,18.9401026 65.8604515,18.75 65.2718727,18.75 C64.8647469,18.75 64.4698196,18.8375075 64.0962397,19.0095051 C62.7269552,19.6416717 62.1216034,21.2356669 62.7460154,22.5633675 C63.5007992,24.1641521 65.9008592,25.4752565 66.8965638,25.9648461 C67.2335481,26.1300543 67.4569336,26.22586 67.4889547,26.2386844 L67.4851427,26.25 L67.4996284,26.2432106 L67.5141142,26.25 L67.5110646,26.2386844 C67.5346992,26.2288775 67.7580847,26.1338262 68.1019307,25.9648461 C68.7995339,25.6223597 69.8188732,25.0641219 70.710128,24.348974 C71.0524491,24.0743814 71.3505506,23.7960169 71.5968083,23.5206699 L71.5975707,23.5214243 L71.6044324,23.5131261 C71.6364535,23.4761617 71.6684746,23.4399517 71.7035454,23.3984611 L71.7134567,23.3871454 C71.7370913,23.3569704 71.7622508,23.3275498 71.7858854,23.2973748 L71.8095201,23.2687085 C71.8301051,23.241551 71.8506901,23.2136391 71.8727999,23.1857272 L71.893385,23.1578153 C71.9185444,23.1231141 71.9429415,23.0884128 71.971913,23.0491853 C71.9970724,23.0122209 72.0207071,22.9760109 72.0435793,22.9390465 L72.0649267,22.9066083 C72.0801749,22.8809596 72.0969479,22.8545564 72.1114336,22.8281533 L72.1343058,22.7889258 C72.1487916,22.763277 72.1640397,22.7376282 72.1770007,22.7119795 L72.1968233,22.6757695 C72.2158835,22.6388051 72.2349437,22.6010863 72.2532415,22.5633675 C72.2707769,22.5248944 72.2883122,22.4871756 72.3035604,22.4487025 L72.3188085,22.4117381 C72.3287198,22.3853349 72.3386312,22.3581774 72.3493049,22.3310199 L72.3630282,22.2895293 C72.3721771,22.2631261 72.381326,22.236723 72.3881877,22.2095655 L72.4003862,22.1710923 C72.4102975,22.1378998 72.418684,22.1047073 72.4270705,22.0707604 L72.4316449,22.051901 C72.4415562,22.0134279 72.4499427,21.9742004 72.456042,21.9342185 L72.4621412,21.8972541 C72.4667157,21.8700966 72.4720525,21.842939 72.4758646,21.8150272 L72.4819638,21.770519 C72.4842511,21.7448702 72.4865383,21.7199759 72.4888255,21.6943271 L72.4926375,21.6490646 C72.4949248,21.6211527 72.4964496,21.5932408 72.4979744,21.5645745 L72.4987368,21.5298733 C72.5002616,21.4914001 72.5002616,21.452927 72.4994992,21.4152082 L72.4979744,21.3744719 Z" id="Fill-14" stroke="none" fill="#003B57" fill-rule="evenodd"></path>
                        <path d="M73.75,56.25 L60,56.25 L60,54.5952481 C60,52.0574012 61.6014253,50 63.5768166,50 L70.8654705,50 C72.4587127,50 73.75,51.6589571 73.75,53.7047939 L73.75,56.25 Z" id="Fill-16" stroke="none" fill="#003B57" fill-rule="evenodd"></path>
                        <path d="M68.75,35.625 C68.75,33.8997887 67.3511545,32.5 65.625,32.5 C63.8979022,32.5 62.5,33.8997887 62.5,35.625 C62.5,37.3511545 63.8979022,38.75 65.625,38.75 C67.3511545,38.75 68.75,37.3511545 68.75,35.625 Z" id="Stroke-18" stroke="#003B57" stroke-width="2" fill="none"></path>
                        <path d="M65.625,53.75 L65.625,37.5" id="Stroke-20" stroke="#003B57" stroke-width="2" fill="none"></path>
                        <g id="Group-24" stroke="none" stroke-width="1" fill="none" fill-rule="evenodd" transform="translate(18.750000, 0.000000)">
                            <mask id="mask-6" fill="white">
                                <use xlink:href="#path-5"></use>
                            </mask>
                            <g id="Clip-23"></g>
                            <path d="M46.8508772,31.0085069 L3.33684211,31.0085069 C1.85701754,31.0085069 0.657017544,29.821875 0.657017544,28.3565972 L0.657017544,3.45729167 C0.657017544,1.99288194 1.85701754,0.805381944 3.33684211,0.805381944 L46.8508772,0.805381944 C48.3307018,0.805381944 49.5307018,1.99288194 49.5307018,3.45729167 L49.5307018,28.3565972 C49.5307018,29.821875 48.3307018,31.0085069 46.8508772,31.0085069" id="Fill-22" fill="#AAC8E5" mask="url(#mask-6)"></path>
                        </g>
                        <path d="M49.9977494,10.9995681 C49.996931,10.9650122 49.9952942,10.9304563 49.992839,10.8966858 C49.9912022,10.8746957 49.9895654,10.8527056 49.9879286,10.8299301 C49.984655,10.799301 49.9821998,10.7694573 49.9797446,10.7388282 C49.9772894,10.7168381 49.9740158,10.6932773 49.9699238,10.6712872 C49.9666502,10.6414435 49.9617398,10.6123851 49.9568293,10.5786146 L49.9470085,10.5150004 C49.9380061,10.466308 49.9281853,10.4191864 49.9167277,10.370494 L49.9011781,10.3068798 C49.8946309,10.2778214 49.8872653,10.2487631 49.8790812,10.2204901 C49.8741708,10.1977146 49.8659868,10.1749391 49.8578028,10.1466661 C49.8504372,10.1215346 49.84389,10.096403 49.8348876,10.0704861 C49.8267036,10.0453546 49.8185196,10.0210084 49.8103356,9.99587686 L49.7882387,9.93697479 C49.7882387,9.93697479 49.7628683,9.86864839 49.7546843,9.84744365 L49.723585,9.77361973 C49.7055802,9.72885416 49.6843018,9.68487395 49.6646602,9.64089374 L49.6335609,9.57649415 C49.6212849,9.55371868 49.6098273,9.53172858 49.5918225,9.49874342 C49.5811833,9.47832404 49.5713625,9.45790466 49.5607232,9.43827064 C49.5451736,9.41235373 49.5312608,9.38643682 49.5148928,9.36051991 L49.4772463,9.2984764 C49.4633335,9.27491557 49.4477839,9.24978403 49.4330527,9.22543784 L49.4003166,9.17753083 C49.3651254,9.12491165 49.3291157,9.07464855 49.2914693,9.02517082 L49.2603701,8.98354669 C49.23991,8.95762978 49.2210868,8.93328359 49.1932612,8.89872772 L49.1605251,8.85945967 C49.1392467,8.83511348 49.1187867,8.81155266 49.0966898,8.78799183 L49.0549514,8.74008482 C49.0320362,8.71730935 49.0099393,8.69296317 48.9886609,8.6701877 L48.9452857,8.62777821 C48.8961816,8.57908584 48.8470775,8.53117883 48.7938815,8.48484254 L48.7799686,8.4714914 L48.768511,8.46206707 C48.7676926,8.46206707 48.7676926,8.46128171 48.7676926,8.46128171 L48.7586902,8.4534281 L48.7578718,8.45421346 C48.4747051,8.20682479 48.1530734,8.00263096 47.8044346,7.84555878 C47.7250497,7.81021754 47.6366624,7.77566167 47.5359991,7.73874971 C47.0989729,7.58010681 46.6455787,7.5 46.1880925,7.5 L46.1659957,7.5 C45.3647811,7.50471217 44.5742057,7.75838373 43.9399449,8.21467839 C43.6207684,8.44400377 43.3482409,8.71888008 43.1264542,9.02988298 L43.1256358,9.02831226 L43.1248174,9.02988298 C42.9022123,8.71888008 42.6296848,8.44400377 42.3113268,8.21467839 C41.6705188,7.75367156 40.8725777,7.5 40.0623607,7.5 C39.5025744,7.5 38.9591561,7.61623341 38.4460186,7.84555878 C36.5620594,8.68982172 35.7289272,10.8150082 36.5890667,12.5852117 C37.6267992,14.7190371 40.9274106,16.4672505 42.297414,17.1198853 C42.7589921,17.3397864 43.0658925,17.4678002 43.1092678,17.4858635 L43.1043574,17.5 L43.1264542,17.4921464 L43.1452774,17.5 L43.1411854,17.4858635 C43.1739215,17.471727 43.4808219,17.3452839 43.9538577,17.1198853 C44.9130237,16.6635907 46.3141263,15.9190686 47.5392727,14.9664258 C48.0106717,14.5996623 48.4206906,14.2274012 48.7586902,13.8614231 L48.7595086,13.8622084 L48.7693294,13.8512134 C48.8143415,13.802521 48.8568983,13.7538286 48.905184,13.6988534 L48.9190968,13.6831462 C48.9526513,13.6430928 48.9862057,13.6030393 49.0197601,13.5637713 L49.0508594,13.5252886 C49.0795034,13.4883767 49.1081475,13.4522501 49.1367915,13.4153381 L49.1654355,13.3776408 C49.2006268,13.3320898 49.2341812,13.2857536 49.2734645,13.232349 C49.3078373,13.1828713 49.3405734,13.1349643 49.3733094,13.0854865 L49.401135,13.043077 C49.4232319,13.0085212 49.4453287,12.9731799 49.4674255,12.9378387 L49.4985248,12.8852195 C49.5181664,12.851449 49.537808,12.8168931 49.5566312,12.7831226 L49.5836385,12.7344302 C49.6098273,12.6849525 49.6368345,12.6346894 49.6605682,12.5852117 C49.6851202,12.5333778 49.7080354,12.4831147 49.7301323,12.4312809 L49.7497739,12.3825885 C49.7653235,12.3472473 49.7784179,12.3111207 49.7923307,12.2749941 L49.8119724,12.2200188 C49.8242484,12.1846776 49.8365244,12.148551 49.8471636,12.1132098 L49.8635316,12.061376 C49.8774444,12.0166104 49.8880837,11.9726302 49.8995413,11.9278646 L49.9069069,11.9027331 C49.9183645,11.8508992 49.9298221,11.7990654 49.9412797,11.7464462 L49.9486453,11.6977539 C49.9551925,11.6608419 49.9617398,11.6239299 49.9666502,11.587018 L49.9748342,11.5281159 C49.9797446,11.49356 49.9821998,11.4597895 49.9854734,11.426019 L49.9903838,11.3663316 C49.9936574,11.3286343 49.9952942,11.2909369 49.996931,11.2524543 L49.9993862,11.2076887 C50.0002046,11.1558549 50.0002046,11.1048064 49.9993862,11.0529726 L49.9977494,10.9995681 Z" id="Fill-25" stroke="none" fill="#003B57" fill-rule="evenodd"></path>
                        <g id="Group-29" stroke="none" stroke-width="1" fill="none" fill-rule="evenodd" transform="translate(33.750000, 52.500000)">
                            <mask id="mask-8" fill="white">
                                <use xlink:href="#path-7"></use>
                            </mask>
                            <g id="Clip-28"></g>
                            <path d="M19.4504348,7.50009375 L0.735652174,7.50009375 L0.735652174,5.60915625 C0.735652174,2.71134375 2.91565217,0.36103125 5.60434783,0.36103125 L15.5243478,0.36103125 C17.6930435,0.36103125 19.4504348,2.25571875 19.4504348,4.59290625 L19.4504348,7.50009375 Z" id="Fill-27" fill="#003B57" mask="url(#mask-8)"></path>
                        </g>
                        <path d="M47.5,31.2495581 C47.5,29.1790385 45.8218452,27.5 43.7495581,27.5 C41.6790385,27.5 40,29.1790385 40,31.2495581 C40,33.3209615 41.6790385,35 43.7495581,35 C45.8218452,35 47.5,33.3209615 47.5,31.2495581 Z" id="Stroke-30" stroke="#003B57" stroke-width="2" fill="none"></path>
                        <path d="M43.125,56.25 L43.125,35" id="Stroke-32" stroke="#003B57" stroke-width="2" fill="none"></path>
                        <mask id="mask-10" fill="white">
                            <use xlink:href="#path-9"></use>
                        </mask>
                        <g id="Clip-35" stroke="none" fill="none"></g>
                        <polygon id="Fill-34" stroke="none" fill="#F6F5F0" fill-rule="evenodd" mask="url(#mask-10)" points="25 23.75 61.25 23.75 61.25 22.5 25 22.5"></polygon>
                    </g>
                </g>
            </g>
        </g>
    </g>
</svg>