<?xml version="1.0" encoding="UTF-8"?>
<svg width="100px" height="100px" viewBox="0 0 100 100" version="1.1" xmlns="http://www.w3.org/2000/svg" xmlns:xlink="http://www.w3.org/1999/xlink">
    <!-- Generator: Sketch 52.5 (67469) - http://www.bohemiancoding.com/sketch -->
    <title>Invitations + Paper Icon</title>
    <desc>Created with Sketch.</desc>
    <defs>
        <circle id="path-1" cx="50" cy="50" r="50"></circle>
        <polygon id="path-3" points="0.308392857 0.411696429 49.1928571 0.411696429 49.1928571 37.1509821 0.308392857 37.1509821"></polygon>
    </defs>
    <g id="Page-1" stroke="none" stroke-width="1" fill="none" fill-rule="evenodd">
        <g id="Topics_Section" transform="translate(-859.000000, -125.000000)">
            <g id="Invitations-+-Paper-Icon" transform="translate(859.000000, 125.000000)">
                <mask id="mask-2" fill="white">
                    <use xlink:href="#path-1"></use>
                </mask>
                <use id="Mask" fill="#F4EFE6" xlink:href="#path-1"></use>
                <g id="Group-14" mask="url(#mask-2)">
                    <g transform="translate(15.000000, 28.000000)">
                        <g id="Group-3" stroke-width="1" fill="none" transform="translate(20.000000, 0.000000)">
                            <mask id="mask-4" fill="white">
                                <use xlink:href="#path-3"></use>
                            </mask>
                            <g id="Clip-2"></g>
                            <path d="M49.1932143,1.99651786 L49.1932143,35.5652679 C49.1932143,36.4411607 48.4833929,37.1509821 47.6083929,37.1509821 L1.89321429,37.1509821 C1.01821429,37.1509821 0.308392857,36.4411607 0.308392857,35.5652679 L0.308392857,1.99651786 C0.308392857,1.12151786 1.01821429,0.411696429 1.89321429,0.411696429 L47.6083929,0.411696429 C48.4833929,0.411696429 49.1932143,1.12151786 49.1932143,1.99651786" id="Fill-1" fill="#F87E7E" mask="url(#mask-4)"></path>
                        </g>
                        <path d="M64.1207915,8.75 L28.3792085,8.75 C27.8930062,8.75 27.5,8.19 27.5,7.5 C27.5,6.81 27.8930062,6.25 28.3792085,6.25 L64.1207915,6.25 C64.6061146,6.25 65,6.81 65,7.5 C65,8.19 64.6061146,8.75 64.1207915,8.75" id="Fill-4" fill="#FFFFFF"></path>
                        <path d="M64.1207915,15 L28.3792085,15 C27.8930062,15 27.5,14.44 27.5,13.75 C27.5,13.06 27.8930062,12.5 28.3792085,12.5 L64.1207915,12.5 C64.6061146,12.5 65,13.06 65,13.75 C65,14.44 64.6061146,15 64.1207915,15" id="Fill-6" fill="#FFFFFF"></path>
                        <path d="M45.5211834,45 L0.727938524,45 C0.325772247,45 0,44.6575518 0,44.2359354 L0,17.0140646 C0,16.5924482 0.325772247,16.25 0.727938524,16.25 L45.5211834,16.25 C45.9233497,16.25 46.25,16.5924482 46.25,17.0140646 L46.25,44.2359354 C46.25,44.6575518 45.9233497,45 45.5211834,45" id="Fill-8" fill="#336081"></path>
                        <polyline id="Fill-10" fill="#003B57" points="1.25 17.5 22.9893348 33.75 46.25 17.5008622"></polyline>
                        <path d="M28.7476844,32.24954 C28.7468129,32.2145814 28.7450698,32.1805428 28.7433267,32.1465041 C28.7424552,32.124425 28.7407121,32.1032659 28.7380975,32.0802668 C28.7363544,32.049908 28.7337398,32.0195492 28.7302536,31.9891904 C28.7285105,31.9661914 28.7258959,31.9431923 28.7232813,31.9211132 C28.7189236,31.8916743 28.7145658,31.8622355 28.7102081,31.8281969 L28.7006212,31.7647194 C28.6927773,31.7168813 28.6840619,31.6690432 28.6744749,31.6212052 L28.6596587,31.5568077 C28.6535579,31.5282889 28.6474571,31.49885 28.6396132,31.4703312 C28.634384,31.4473321 28.6282832,31.425253 28.6204393,31.3967341 C28.613467,31.3709752 28.6064946,31.3461362 28.5995223,31.3212971 C28.5916784,31.2955382 28.5847061,31.2706992 28.5768622,31.2458602 L28.5576883,31.1879025 C28.5576883,31.1879025 28.5341567,31.1179853 28.5271843,31.0977461 L28.4984234,31.0232291 C28.4809926,30.9790708 28.4626902,30.9349126 28.4435163,30.8907544 L28.4156269,30.8263569 C28.4051684,30.8033579 28.3947099,30.7812787 28.3790222,30.74908 C28.3694352,30.7288408 28.3598483,30.7086017 28.3493897,30.6883625 C28.3363166,30.6616835 28.3232435,30.6368445 28.3092988,30.6101656 L28.2753087,30.5485281 C28.261364,30.524609 28.2474193,30.50069 28.2334747,30.475851 L28.2029707,30.4270929 C28.1715952,30.375575 28.1393481,30.324977 28.105358,30.275299 L28.0765971,30.2339006 C28.0591663,30.2081417 28.0408639,30.1833027 28.0155892,30.149264 L27.9850852,30.1097056 C27.9667828,30.0848666 27.9484804,30.0618675 27.9293065,30.0379485 L27.8900871,29.9901104 C27.8700417,29.9671113 27.8499962,29.9431923 27.8290792,29.9201932 L27.7907313,29.8778749 C27.7462827,29.8291168 27.7009625,29.7812787 27.6530277,29.7352806 L27.6399546,29.7214811 L27.6294961,29.7113615 C27.6294961,29.7113615 27.6294961,29.7113615 27.6286245,29.7113615 L27.6216522,29.7030819 L27.6207806,29.7040018 C27.3619327,29.4574517 27.0708376,29.2522999 26.7535964,29.0959062 C26.6803868,29.0609476 26.6010765,29.025069 26.5095646,28.9891904 C26.113013,28.8309568 25.6999021,28.75 25.283305,28.75 L25.2641311,28.75 C24.535522,28.7545998 23.8164998,29.0085097 23.239539,29.4648114 C22.9501871,29.6938822 22.7026692,29.9689512 22.5004714,30.2798988 L22.4995999,30.2789788 L22.4987283,30.2798988 C22.2965306,29.9689512 22.0490127,29.6938822 21.7596607,29.4648114 C21.1774707,29.0039098 20.4514762,28.75 19.7150232,28.75 C19.2060427,28.75 18.7118784,28.8668353 18.2456034,29.0959062 C16.5330234,29.9395124 15.7765249,32.0646274 16.5582981,33.8346366 C17.5013065,35.9689512 20.5002825,37.7178013 21.7465876,38.3700552 C22.1666708,38.5899264 22.4464358,38.7178013 22.4847837,38.7352806 L22.4812975,38.75 L22.4995999,38.7426403 L22.5187738,38.75 L22.5144161,38.7352806 C22.543177,38.7224011 22.822942,38.5945262 23.2526122,38.3700552 C24.1250257,37.9128335 25.3983486,37.1685833 26.5130508,36.2164213 C26.9418494,35.850276 27.3131263,35.4776909 27.6216522,35.1106256 L27.6216522,35.1115455 L27.6303676,35.100506 C27.6713301,35.0526679 27.7105495,35.0039098 27.7541266,34.9487121 L27.7663282,34.9330727 C27.7968321,34.8935143 27.8273361,34.8539558 27.8578401,34.8134775 L27.8857294,34.774839 C27.9127472,34.7389604 27.9388935,34.7021619 27.9650397,34.6653634 L27.991186,34.6276449 C28.0225615,34.5816467 28.053937,34.5356486 28.0887987,34.4822907 C28.1201742,34.4335327 28.1506782,34.3847746 28.1803106,34.3360166 L28.2047138,34.2927783 C28.2256308,34.2578197 28.2456763,34.2228611 28.2648502,34.1879025 L28.2936111,34.1354646 C28.3119134,34.1014259 28.3293443,34.0673873 28.3467751,34.0324287 L28.3711783,33.9845906 C28.3955815,33.9349126 28.4191131,33.8843146 28.4409017,33.8346366 C28.4635617,33.7840386 28.4844788,33.7325207 28.5045242,33.6810028 L28.5228266,33.6322447 C28.5358997,33.5963661 28.5481013,33.5614075 28.5611745,33.524609 L28.5786053,33.4694112 C28.5899353,33.4344526 28.6012654,33.3985741 28.6108523,33.3626955 L28.6256686,33.3111776 C28.6378701,33.2670193 28.6483287,33.2228611 28.6587872,33.1777829 L28.6640164,33.1529439 C28.6753465,33.1014259 28.685805,33.048988 28.6953919,32.9965501 L28.7032358,32.9468721 C28.7093366,32.9109936 28.7145658,32.874195 28.7197951,32.8373965 L28.7267674,32.7775989 C28.7302536,32.7444802 28.7337398,32.7095216 28.7363544,32.675483 L28.7415836,32.6156854 C28.7441983,32.5779669 28.7459414,32.5402484 28.7476844,32.5025299 L28.748556,32.4574517 C28.7502991,32.4059338 28.7502991,32.3544158 28.7494275,32.3038178 L28.7476844,32.24954 Z" id="Fill-12" fill="#F8C4C2"></path>
                    </g>
                </g>
            </g>
        </g>
    </g>
</svg>