<?xml version="1.0" encoding="UTF-8"?>
<svg width="100px" height="100px" viewBox="0 0 100 100" version="1.1" xmlns="http://www.w3.org/2000/svg" xmlns:xlink="http://www.w3.org/1999/xlink">
    <!-- Generator: Sketch 52.5 (67469) - http://www.bohemiancoding.com/sketch -->
    <title>Decor + Inspiration Icon</title>
    <desc>Created with Sketch.</desc>
    <defs>
        <circle id="path-1" cx="50" cy="50" r="50"></circle>
        <polygon id="path-3" points="0.0239058118 0.102603041 46.31625 0.102603041 46.31625 48.7116975 0.0239058118 48.7116975"></polygon>
        <polygon id="path-5" points="0 0.401997131 59.4238779 0.401997131 59.4238779 61.2499543 0 61.2499543"></polygon>
    </defs>
    <g id="Page-1" stroke="none" stroke-width="1" fill="none" fill-rule="evenodd">
        <g id="Topics_Section" transform="translate(-590.000000, -125.000000)">
            <g id="Decor-+-Inspiration-Icon" transform="translate(590.000000, 125.000000)">
                <mask id="mask-2" fill="white">
                    <use xlink:href="#path-1"></use>
                </mask>
                <use id="Mask" fill="#F4EFE6" xlink:href="#path-1"></use>
                <g id="Group-35" mask="url(#mask-2)">
                    <g transform="translate(17.500000, 12.500000)">
                        <g id="Group-3" stroke-width="1" fill="none" transform="translate(16.250000, 1.147625)">
                            <mask id="mask-4" fill="white">
                                <use xlink:href="#path-3"></use>
                            </mask>
                            <g id="Clip-2"></g>
                            <path d="M46.2765,39.26525 L38.619,1.6915 C38.4015,0.6215 37.3465,-0.076 36.2765,0.14275 L1.614,7.2065 C0.544,7.424 -0.15475,8.479 0.064,9.55025 L7.7215,47.12275 C7.94025,48.194 8.994,48.89025 10.064,48.6715 L44.7265,41.60775 C45.79775,41.389 46.49525,40.33525 46.2765,39.26525" id="Fill-1" fill="#F8C4C2" mask="url(#mask-4)"></path>
                        </g>
                        <path d="M57.55275,34.682875 L51.75525,6.235375 C51.68025,5.866625 51.3165,5.625375 50.9465,5.700375 L21.044,11.794125 C20.67525,11.870375 20.434,12.234125 20.509,12.604125 L26.3065,41.050375 C26.3065,41.050375 57.5615,34.724125 57.55275,34.682875" id="Fill-4" fill="#FFFFFF"></path>
                        <g id="Group-8" stroke-width="1" fill="none" transform="translate(0.000000, 12.397625)">
                            <mask id="mask-6" fill="white">
                                <use xlink:href="#path-5"></use>
                            </mask>
                            <g id="Clip-7"></g>
                            <path d="M59.17625,39.760875 L39.40375,1.602125 C38.84,0.515875 37.49,0.087125 36.4025,0.649625 L1.20125,18.890875 C0.11375,19.454625 -0.315,20.804625 0.2475,21.890875 L20.02,60.048375 C20.58375,61.137125 21.93375,61.564625 23.02125,61.002125 L58.22375,42.760875 C59.31,42.197125 59.73875,40.847125 59.17625,39.760875" id="Fill-6" fill="#F87E7E" mask="url(#mask-6)"></path>
                        </g>
                        <path d="M52.057125,47.505125 L37.087125,18.616375 C36.893375,18.241375 36.427125,18.092625 36.052125,18.287625 L5.683375,34.022625 C5.308375,34.217625 5.160875,34.683875 5.354625,35.058875 L20.324625,63.947625 C20.324625,63.947625 52.079625,47.547625 52.057125,47.505125" id="Fill-9" fill="#FFFFFF"></path>
                        <polygon id="Fill-11" fill="#003B57" points="35.9615 55.930375 28.96275 43.015375 29.664 42.634125 36.66275 55.550375"></polygon>
                        <path d="M25.801625,30.930375 C25.149125,29.726625 23.644125,29.280375 22.441625,29.931625 C21.236625,30.584125 20.790375,32.089125 21.441625,33.292875 C21.631625,33.642875 21.895375,33.926625 22.201625,34.140375 L22.199125,34.141625 L26.681625,37.757875 L26.100375,32.051625 L26.099125,32.052875 C26.090375,31.672875 25.995375,31.287875 25.801625,30.930375" id="Fill-13" fill="#F87E7E"></path>
                        <path d="M31.83675,42.069375 C32.48925,43.273125 32.04175,44.776875 30.838,45.429375 C29.63425,46.081875 28.12925,45.635625 27.47675,44.431875 C27.288,44.080625 27.193,43.705625 27.18175,43.333125 L27.17925,43.334375 L26.598,37.604375 L31.05925,41.205625 L31.058,41.206875 C31.37175,41.420625 31.643,41.710625 31.83675,42.069375" id="Fill-15" fill="#F87E7E"></path>
                        <path d="M33.3895,36.84225 C34.59325,36.191 35.04075,34.686 34.38825,33.48225 C33.73575,32.2785 32.23075,31.831 31.027,32.4835 C30.67825,32.6735 30.39325,32.93725 30.1795,33.24225 L30.17825,33.23975 L26.56325,37.72225 L32.26825,37.141 L32.267,37.13975 C32.647,37.131 33.032,37.036 33.3895,36.84225" id="Fill-17" fill="#F87E7E"></path>
                        <path d="M22.251875,42.8775 C21.048125,43.53 19.543125,43.08375 18.890625,41.88 C18.238125,40.67625 18.685625,39.17125 19.889375,38.51875 C20.240625,38.32875 20.615625,38.235 20.988125,38.22125 L20.986875,38.22 L26.716875,37.64 L23.114375,42.10125 L23.113125,42.1 C22.898125,42.41375 22.609375,42.685 22.251875,42.8775" id="Fill-19" fill="#F87E7E"></path>
                        <path d="M30.791875,32.294 C31.175625,30.979 30.420625,29.60275 29.105625,29.219 C27.791875,28.8365 26.415625,29.5915 26.031875,30.9065 C25.920625,31.289 25.908125,31.6765 25.975625,32.04275 L25.973125,32.04275 L26.614375,37.76525 L30.215625,33.3015 L30.213125,33.30025 C30.475625,33.024 30.678125,32.684 30.791875,32.294" id="Fill-21" fill="#F87E7E"></path>
                        <path d="M27.246875,44.45575 C26.864375,45.7695 25.488125,46.5245 24.173125,46.142 C22.858125,45.75825 22.103125,44.382 22.486875,43.06825 C22.598125,42.68575 22.795625,42.352 23.049375,42.07825 L23.046875,42.07825 L26.664375,37.597 L27.301875,43.29575 L27.300625,43.2945 C27.371875,43.6695 27.360625,44.06575 27.246875,44.45575" id="Fill-23" fill="#F87E7E"></path>
                        <path d="M32.026625,41.83375 C33.340375,42.21625 34.717875,41.46125 35.100375,40.14625 C35.484125,38.83375 34.729125,37.45625 33.414125,37.0725 C33.031625,36.9625 32.644125,36.95 32.277875,37.01625 L32.279125,37.01375 L26.555375,37.65625 L31.019125,41.2575 L31.019125,41.255 C31.296625,41.51625 31.636625,41.71875 32.026625,41.83375" id="Fill-25" fill="#F87E7E"></path>
                        <path d="M19.86475,38.287625 C18.54975,37.905125 17.79475,36.528875 18.1785,35.213875 C18.56225,33.898875 19.9385,33.145125 21.25225,33.527625 C21.63475,33.638875 21.9685,33.836375 22.24225,34.091375 L22.24225,34.088875 L26.7235,37.705125 L21.02475,38.342625 L21.02475,38.341375 C20.651,38.413875 20.25475,38.402625 19.86475,38.287625" id="Fill-27" fill="#F87E7E"></path>
                        <path d="M28.6745,36.6775 C28.0545,35.535 26.62575,35.11 25.482,35.72875 C24.3395,36.34875 23.9145,37.77875 24.53325,38.92125 C25.15325,40.065 26.582,40.49 27.72575,39.87 C28.8695,39.25125 29.2945,37.82125 28.6745,36.6775" id="Fill-29" fill="#FCD6D3"></path>
                        <path d="M34.482625,51.694625 C32.140125,45.077125 38.827625,42.319625 38.827625,42.319625 C40.686375,50.163375 34.482625,51.694625 34.482625,51.694625" id="Fill-31" fill="#003B57"></path>
                        <path d="M34.09575,51.903375 C29.832,46.327125 23.87075,50.423375 23.87075,50.423375 C29.42575,56.264625 34.09575,51.903375 34.09575,51.903375" id="Fill-33" fill="#003B57"></path>
                    </g>
                </g>
            </g>
        </g>
    </g>
</svg>