<?xml version="1.0" encoding="UTF-8"?>
<svg width="100px" height="100px" viewBox="0 0 100 100" version="1.1" xmlns="http://www.w3.org/2000/svg" xmlns:xlink="http://www.w3.org/1999/xlink">
    <!-- Generator: Sketch 52.5 (67469) - http://www.bohemiancoding.com/sketch -->
    <title>Registry Icon</title>
    <desc>Created with Sketch.</desc>
    <defs>
        <circle id="path-1" cx="50" cy="50" r="50"></circle>
        <polygon id="path-3" points="9.86842105e-05 0.978552632 56.0723684 0.978552632 56.0723684 12.6380921 9.86842105e-05 12.6380921"></polygon>
    </defs>
    <g id="Page-1" stroke="none" stroke-width="1" fill="none" fill-rule="evenodd">
        <g id="Topics_Section" transform="translate(-1097.000000, -125.000000)">
            <g id="Registry-Icon" transform="translate(1097.000000, 125.000000)">
                <mask id="mask-2" fill="white">
                    <use xlink:href="#path-1"></use>
                </mask>
                <use id="Mask" fill="#F4EFE6" xlink:href="#path-1"></use>
                <g id="Group-18" mask="url(#mask-2)">
                    <g transform="translate(22.500000, 15.000000)">
                        <path d="M51.0491447,64.6065789 L4.86888158,64.6065789 C3.00375,64.6065789 1.49190789,63.0947368 1.49190789,61.2305921 L1.49190789,21.5644737 C1.49190789,19.7003289 3.00375,18.1884868 4.86888158,18.1884868 L51.0491447,18.1884868 C52.9132895,18.1884868 54.4251316,19.7003289 54.4251316,21.5644737 L54.4251316,61.2305921 C54.4251316,63.0947368 52.9132895,64.6065789 51.0491447,64.6065789" id="Fill-1" stroke="none" fill="#01B4C0" fill-rule="evenodd"></path>
                        <g id="Group-5" stroke="none" stroke-width="1" fill="none" fill-rule="evenodd" transform="translate(0.000000, 16.247961)">
                            <mask id="mask-4" fill="white">
                                <use xlink:href="#path-3"></use>
                            </mask>
                            <g id="Clip-4"></g>
                            <path d="M56.0724671,12.6380921 L9.86842105e-05,12.6380921 L9.86842105e-05,3.80486842 C9.86842105e-05,2.24368421 1.26621711,0.978552632 2.82740132,0.978552632 L54.3089803,0.978552632 C55.2829934,0.978552632 56.0724671,1.76703947 56.0724671,2.74105263 L56.0724671,12.6380921 Z" id="Fill-3" fill="#179CAA" mask="url(#mask-4)"></path>
                        </g>
                        <path d="M28.3932237,17.2429934 C26.8547368,14.0989145 25.4998026,11.0979276 23.6001316,8.158125 C22.0981579,5.833125 20.4422368,3.53378289 18.19125,1.92424342 C15.9392763,0.313717105 12.9748026,-0.520164474 10.3478289,0.351217105 C6.8475,1.51470395 4.88664474,5.30220395 4.24717105,8.93476974 C3.88302632,11.0041776 3.85342105,13.2433224 4.86394737,15.0857566 C5.89322368,16.9637171 7.88171053,18.1656908 9.95013158,18.7222697 C12.0185526,19.2778618 14.1915789,19.2679934 16.3340132,19.2541776 C19.11,19.2374013 21.8869737,19.2196382 24.6639474,19.201875 C25.4366447,19.1969408 26.2300658,19.1880592 26.9504605,18.9077961 C27.6698684,18.6275329 28.3123026,18.0117434 28.3932237,17.2429934" id="Fill-6" stroke="none" fill="#003B57" fill-rule="evenodd"></path>
                        <path d="M23.1833882,15.1488158 C22.2754934,12.8672368 20.8603618,10.7613158 19.1777961,8.98105263 C17.6610197,7.37447368 15.4702303,5.37315789 13.078125,5.70671053 C11.5909539,5.91394737 10.3643092,7.07348684 9.73371711,8.43532895 C9.31036184,9.34717105 9.11398026,10.3803947 9.28766447,11.3711842 C9.75740132,14.0494737 12.4287829,14.5902632 14.7300987,14.7905921 C17.4370066,15.0254605 20.4182566,15.2534211 23.1833882,15.1488158" id="Fill-8" stroke="none" fill="#F6F5F0" fill-rule="evenodd"></path>
                        <path d="M27.2593421,17.2429934 C28.7978289,14.0989145 30.1527632,11.0979276 32.0524342,8.158125 C33.5553947,5.833125 35.2103289,3.53378289 37.4613158,1.92424342 C39.7132895,0.313717105 42.67875,-0.520164474 45.3057237,0.351217105 C48.8050658,1.51470395 50.7659211,5.30220395 51.4053947,8.93476974 C51.7695395,11.0041776 51.7991447,13.2433224 50.7886184,15.0857566 C49.7593421,16.9637171 47.7718421,18.1656908 45.7024342,18.7222697 C43.6340132,19.2778618 41.4609868,19.2679934 39.3195395,19.2541776 C36.5425658,19.2374013 33.7655921,19.2196382 30.9886184,19.201875 C30.2159211,19.1969408 29.4225,19.1880592 28.7030921,18.9077961 C27.9826974,18.6275329 27.3402632,18.0117434 27.2593421,17.2429934" id="Fill-10" stroke="none" fill="#003B57" fill-rule="evenodd"></path>
                        <path d="M32.4696711,15.1488158 C33.3765789,12.8672368 34.7926974,10.7613158 36.4742763,8.98105263 C37.9910526,7.37447368 40.1828289,5.37315789 42.5749342,5.70671053 C44.0611184,5.91394737 45.28875,7.07348684 45.9193421,8.43532895 C46.3426974,9.34717105 46.5390789,10.3803947 46.3653947,11.3711842 C45.8946711,14.0494737 43.2242763,14.5902632 40.9229605,14.7905921 C38.2160526,15.0254605 35.2348026,15.2534211 32.4696711,15.1488158" id="Fill-12" stroke="none" fill="#F6F5F0" fill-rule="evenodd"></path>
                        <path d="M27.856875,17.5446711 L27.856875,66.5769079" id="Stroke-14" stroke="#003B57" stroke-width="2" fill="none" stroke-linecap="round" stroke-linejoin="round"></path>
                        <path d="M1.10950658,42.1709211 L54.6595066,42.1709211" id="Stroke-16" stroke="#003B57" stroke-width="2" fill="none" stroke-linecap="round" stroke-linejoin="round"></path>
                    </g>
                </g>
            </g>
        </g>
    </g>
</svg>