<?xml version="1.0" encoding="UTF-8"?>
<svg width="100px" height="100px" viewBox="0 0 100 100" version="1.1" xmlns="http://www.w3.org/2000/svg" xmlns:xlink="http://www.w3.org/1999/xlink">
    <!-- Generator: Sketch 52.5 (67469) - http://www.bohemiancoding.com/sketch -->
    <title>Planning Icon</title>
    <desc>Created with Sketch.</desc>
    <defs>
        <circle id="path-1" cx="50" cy="50" r="50"></circle>
        <polygon id="path-3" points="0 57.5 65 57.5 65 0 0 0"></polygon>
    </defs>
    <g id="Page-1" stroke="none" stroke-width="1" fill="none" fill-rule="evenodd">
        <g id="Topics_Section" transform="translate(-342.000000, -125.000000)">
            <g id="Planning-Icon" transform="translate(342.000000, 125.000000)">
                <mask id="mask-2" fill="white">
                    <use xlink:href="#path-1"></use>
                </mask>
                <use id="Mask" fill="#F4EFE6" xlink:href="#path-1"></use>
                <g id="Group-29" mask="url(#mask-2)">
                    <g transform="translate(18.000000, 21.000000)">
                        <path d="M64.1990724,17.5 L60.8000357,17.5 C60.3585444,17.5 60,17.1152686 60,16.6403509 L60,9.61060855 C60,9.13473136 60.3585444,8.75 60.8000357,8.75 L64.1990724,8.75 C64.6414556,8.75 65,9.13473136 65,9.61060855 L65,16.6403509 C65,17.1152686 64.6414556,17.5 64.1990724,17.5" id="Fill-1" stroke="none" fill="#96B0C9" fill-rule="evenodd"></path>
                        <path d="M64.1990724,28.75 L60.8000357,28.75 C60.3585444,28.75 60,28.3652686 60,27.8903509 L60,20.8606086 C60,20.3856908 60.3585444,20 60.8000357,20 L64.1990724,20 C64.6414556,20 65,20.3856908 65,20.8606086 L65,27.8903509 C65,28.3652686 64.6414556,28.75 64.1990724,28.75" id="Fill-3" stroke="none" fill="#96B0C9" fill-rule="evenodd"></path>
                        <path d="M60.5027111,57.5 L5.74635469,57.5 C4.64401565,57.5 3.75,56.6335172 3.75,55.5642213 L3.75,5.68396783 C3.75,4.61557736 4.64401565,3.75 5.74635469,3.75 L60.5027111,3.75 C61.6059844,3.75 62.5,4.61557736 62.5,5.68396783 L62.5,55.5642213 C62.5,56.6335172 61.6059844,57.5 60.5027111,57.5" id="Fill-5" stroke="none" fill="#C7D6EE" fill-rule="evenodd"></path>
                        <path d="M5.56389776,12.5 L0.686102236,12.5 C0.306709265,12.5 0,12.0218579 0,11.4344262 L0,11.0692996 C0,10.4781421 0.306709265,10 0.686102236,10 L5.56389776,10 C5.94329073,10 6.25,10.4781421 6.25,11.0692996 L6.25,11.4344262 C6.25,12.0218579 5.94329073,12.5 5.56389776,12.5" id="Fill-7" stroke="none" fill="#003B57" fill-rule="evenodd"></path>
                        <path d="M5.56389776,17.5 L0.686102236,17.5 C0.306709265,17.5 0,17.0218579 0,16.4344262 L0,16.0692996 C0,15.4781421 0.306709265,15 0.686102236,15 L5.56389776,15 C5.94329073,15 6.25,15.4781421 6.25,16.0692996 L6.25,16.4344262 C6.25,17.0218579 5.94329073,17.5 5.56389776,17.5" id="Fill-9" stroke="none" fill="#003B57" fill-rule="evenodd"></path>
                        <path d="M5.56389776,23.75 L0.686102236,23.75 C0.306709265,23.75 0,23.2718579 0,22.6844262 L0,22.3192996 C0,21.7281421 0.306709265,21.25 0.686102236,21.25 L5.56389776,21.25 C5.94329073,21.25 6.25,21.7281421 6.25,22.3192996 L6.25,22.6844262 C6.25,23.2718579 5.94329073,23.75 5.56389776,23.75" id="Fill-11" stroke="none" fill="#003B57" fill-rule="evenodd"></path>
                        <path d="M5.56389776,28.75 L0.686102236,28.75 C0.306709265,28.75 0,28.2718579 0,27.6844262 L0,27.3192996 C0,26.7281421 0.306709265,26.25 0.686102236,26.25 L5.56389776,26.25 C5.94329073,26.25 6.25,26.7281421 6.25,27.3192996 L6.25,27.6844262 C6.25,28.2718579 5.94329073,28.75 5.56389776,28.75" id="Fill-13" stroke="none" fill="#003B57" fill-rule="evenodd"></path>
                        <path d="M5.56389776,35 L0.686102236,35 C0.306709265,35 0,34.5216203 0,33.9338966 L0,33.5685885 C0,32.9771372 0.306709265,32.5 0.686102236,32.5 L5.56389776,32.5 C5.94329073,32.5 6.25,32.9771372 6.25,33.5685885 L6.25,33.9338966 C6.25,34.5216203 5.94329073,35 5.56389776,35" id="Fill-15" stroke="none" fill="#003B57" fill-rule="evenodd"></path>
                        <path d="M5.56389776,40 L0.686102236,40 C0.306709265,40 0,39.5216203 0,38.9351392 L0,38.5685885 C0,37.9783797 0.306709265,37.5 0.686102236,37.5 L5.56389776,37.5 C5.94329073,37.5 6.25,37.9783797 6.25,38.5685885 L6.25,38.9351392 C6.25,39.5216203 5.94329073,40 5.56389776,40" id="Fill-17" stroke="none" fill="#003B57" fill-rule="evenodd"></path>
                        <path d="M5.56389776,46.25 L0.686102236,46.25 C0.306709265,46.25 0,45.7728628 0,45.1851392 L0,44.819831 C0,44.2283797 0.306709265,43.75 0.686102236,43.75 L5.56389776,43.75 C5.94329073,43.75 6.25,44.2283797 6.25,44.819831 L6.25,45.1851392 C6.25,45.7728628 5.94329073,46.25 5.56389776,46.25" id="Fill-19" stroke="none" fill="#003B57" fill-rule="evenodd"></path>
                        <path d="M5.56389776,52.5 L0.686102236,52.5 C0.306709265,52.5 0,52.0218579 0,51.4344262 L0,51.0692996 C0,50.4781421 0.306709265,50 0.686102236,50 L5.56389776,50 C5.94329073,50 6.25,50.4781421 6.25,51.0692996 L6.25,51.4344262 C6.25,52.0218579 5.94329073,52.5 5.56389776,52.5" id="Fill-21" stroke="none" fill="#003B57" fill-rule="evenodd"></path>
                        <mask id="mask-4" fill="white">
                            <use xlink:href="#path-3"></use>
                        </mask>
                        <g id="Clip-24" stroke="none" fill="none"></g>
                        <polygon id="Fill-23" stroke="none" fill="#003B57" fill-rule="evenodd" mask="url(#mask-4)" points="47.5 57.5 51.25 57.5 51.25 3.75 47.5 3.75"></polygon>
                        <path d="M44.9956725,28.6227414 C44.9938139,28.5640165 44.9910261,28.5025813 44.987309,28.4438565 C44.9845212,28.4059112 44.9817334,28.3679659 44.9780163,28.3273103 C44.9742992,28.2731027 44.9687235,28.2216056 44.9622186,28.167398 C44.9585015,28.1267424 44.9538551,28.0869902 44.9482794,28.047238 C44.9417745,27.9975478 44.933411,27.9442437 44.9241183,27.8873258 L44.906462,27.7762003 C44.8915936,27.6921786 44.8748667,27.60635 44.8562811,27.5223283 L44.8293322,27.4102994 C44.8172516,27.3615126 44.8042417,27.3100155 44.7912318,27.2585183 C44.7800805,27.2196696 44.7689292,27.1799174 44.7540608,27.1311306 C44.741051,27.0868611 44.7280411,27.0416882 44.714102,26.9974187 C44.7001628,26.9531492 44.6852944,26.9097832 44.670426,26.8673206 L44.6341843,26.7643263 C44.6341843,26.7643263 44.589579,26.6441662 44.5756399,26.6089313 L44.5217419,26.4779298 C44.4892173,26.3993289 44.4548341,26.3216314 44.4185923,26.2448374 L44.3656236,26.131905 C44.3461088,26.0921528 44.3247355,26.0533041 44.2949986,25.9972896 C44.2773424,25.9620547 44.2578276,25.9268198 44.2392421,25.8924884 C44.2141516,25.846412 44.1881319,25.8003356 44.1621122,25.7542592 L44.0970629,25.6467475 C44.0710432,25.6033815 44.0459528,25.5609189 44.0190038,25.5184564 L43.9613887,25.4344347 C43.901915,25.3431853 43.8396536,25.2546464 43.7746043,25.1688178 L43.7207063,25.0956376 C43.6872523,25.0513681 43.6519399,25.0070986 43.6036175,24.9483738 L43.547861,24.877904 C43.5125485,24.8372483 43.4763068,24.7947858 43.440065,24.7532266 L43.365723,24.669205 C43.3276226,24.6276458 43.2904516,24.5869902 43.251422,24.5463345 L43.1780093,24.4722509 C43.0934452,24.3882292 43.0060933,24.305111 42.9159535,24.2237997 L42.8908631,24.1994063 L42.8713483,24.1813371 C42.8713483,24.1813371 42.870419,24.1813371 42.870419,24.1804337 L42.8555506,24.1668818 L42.8536921,24.1677852 C42.3630345,23.7377388 41.8091862,23.3781621 41.2060863,23.106221 C41.0685535,23.0420754 40.9170815,22.9815436 40.7423777,22.9183015 C39.9896644,22.6409396 39.2053557,22.5 38.4136128,22.5 L38.3764418,22.5 C36.9927503,22.5063242 35.6267151,22.9517295 34.5301698,23.7494837 C33.9809678,24.151523 33.5107543,24.6312597 33.1260342,25.1778523 L33.1251049,25.175142 L33.1232464,25.1778523 C32.7394555,24.6321631 32.2683128,24.1524264 31.7191108,23.7494837 C30.6123435,22.9445018 29.2332984,22.5009035 27.8338092,22.5009035 C26.8673625,22.5009035 25.9278648,22.7023748 25.0422651,23.106221 C21.7888709,24.5797625 20.3503521,28.30111 21.8353347,31.3963604 C23.6279075,35.1321631 29.3262259,38.1921786 31.6940204,39.3332473 C32.4913389,39.7181208 33.0219553,39.9412752 33.0972267,39.9728962 L33.0888632,40 L33.1251049,39.9846412 L33.1604174,40 L33.1520539,39.9728962 C33.2078105,39.9494063 33.7393562,39.7271554 34.5561895,39.3332473 C36.213088,38.535493 38.6319926,37.2308983 40.7498119,35.5658234 C41.5638574,34.9243676 42.2710362,34.2729737 42.8555506,33.6306144 L42.8564799,33.6315178 L42.8732068,33.6116417 C42.9503367,33.5285235 43.0246788,33.4426949 43.1083136,33.3469282 L43.1306162,33.318921 C43.1900898,33.2493547 43.2477049,33.1797883 43.30532,33.110222 L43.3582887,33.043366 C43.4093989,32.978317 43.4595798,32.9150749 43.5079021,32.8518327 L43.5590123,32.7840733 C43.6184859,32.7054724 43.6779596,32.6250645 43.7439382,32.5292979 C43.8034118,32.4443727 43.8610269,32.3603511 43.9167834,32.273619 L43.9641765,32.1986319 C44.0032061,32.1390036 44.0413064,32.0757615 44.0784774,32.0143263 L44.1323754,31.9230769 C44.1667586,31.8643521 44.2011418,31.8038203 44.2336664,31.7432886 L44.2801302,31.6592669 C44.326594,31.5734383 44.3711992,31.4848993 44.4130166,31.3963604 C44.4557633,31.3087248 44.4947929,31.2183789 44.5338225,31.128033 L44.5682057,31.0449148 C44.5923669,30.9798658 44.6174573,30.9175271 44.6406892,30.8560919 L44.6750724,30.7576149 C44.6964457,30.6961797 44.7168898,30.6347445 44.7354753,30.5715023 L44.7633536,30.4811564 C44.7865855,30.4043624 44.8070295,30.3266649 44.8265443,30.2489675 L44.8376956,30.204698 C44.859069,30.1125452 44.8785838,30.0231027 44.89624,29.9300465 L44.9111084,29.8451213 C44.9222597,29.7791688 44.9324818,29.7159267 44.9417745,29.6526846 L44.9557136,29.5469799 C44.9622186,29.488255 44.9687235,29.4295302 44.9742992,29.368095 L44.9835919,29.2641972 C44.9882383,29.2000516 44.9919554,29.1322922 44.9947432,29.0654362 L44.9984603,28.9859319 C45.0003189,28.8973929 45.0003189,28.8061435 44.9993896,28.7167011 L44.9956725,28.6227414 Z" id="Fill-25" stroke="none" fill="#96B0C9" fill-rule="evenodd" mask="url(#mask-4)"></path>
                        <path d="M14.2490628,30 L13.2509372,30 C12.8362231,30 12.5,29.7327769 12.5,29.4001495 L12.5,0.597047465 C12.5,0.268157469 12.8362231,0 13.2509372,0 L14.2490628,0 C14.6637769,0 15,0.268157469 15,0.597047465 L15,29.4001495 C15,29.7327769 14.6637769,30 14.2490628,30" id="Fill-26" stroke="none" fill="#003B57" fill-rule="evenodd" mask="url(#mask-4)"></path>
                        <polygon id="Fill-27" stroke="none" fill="#003B57" fill-rule="evenodd" mask="url(#mask-4)" points="12.5 28.75 13.41612 32.5 14.2396907 32.5 15 28.75"></polygon>
                        <polygon id="Fill-28" stroke="none" fill="#96B0C9" fill-rule="evenodd" mask="url(#mask-4)" points="11.281875 3.75 12.468125 3.75 12.468125 1.25 11.281875 1.25"></polygon>
                    </g>
                </g>
            </g>
        </g>
    </g>
</svg>