<?xml version="1.0" encoding="utf-8"?>
<!-- Generator: Adobe Illustrator 25.4.1, SVG Export Plug-In . SVG Version: 6.00 Build 0)  -->
<svg version="1.1" id="Layer_1" xmlns="http://www.w3.org/2000/svg" xmlns:xlink="http://www.w3.org/1999/xlink" x="0px" y="0px"
	 viewBox="0 0 1000 1000" style="enable-background:new 0 0 1000 1000;" xml:space="preserve">
<style type="text/css">
	.st0{fill:#F4EFE6;}
	.st1{fill:#003B57;}
	.st2{fill:#AAC8E5;}
	.st3{fill:#F6F5F0;}
	.st4{fill:#D1E1F1;}
</style>
<g>
	<circle class="st0" cx="498" cy="497" r="488"/>
	<path class="st1" d="M730.31,830.41h-451.6c-18.67,0-33.8-15.13-33.8-33.8V199.05c0-18.67,15.13-33.8,33.8-33.8h451.6
		c18.67,0,33.8,15.13,33.8,33.8v597.56C764.11,815.28,748.97,830.41,730.31,830.41z"/>
	<rect x="288.17" y="218.7" class="st2" width="433.71" height="558.27"/>
	<g>
		<path class="st3" d="M683.73,585.45H324.57c-4.3,0-7.78-3.49-7.78-7.78l0,0c0-4.3,3.49-7.78,7.78-7.78h359.16
			c4.3,0,7.78,3.49,7.78,7.78l0,0C691.52,581.96,688.03,585.45,683.73,585.45z"/>
		<path class="st3" d="M683.73,455.86H324.57c-4.3,0-7.78-3.49-7.78-7.78l0,0c0-4.3,3.49-7.78,7.78-7.78h359.16
			c4.3,0,7.78,3.49,7.78,7.78l0,0C691.52,452.38,688.03,455.86,683.73,455.86z"/>
		<path class="st3" d="M683.73,324.07H324.57c-4.3,0-7.78-3.49-7.78-7.78l0,0c0-4.3,3.49-7.78,7.78-7.78h359.16
			c4.3,0,7.78,3.49,7.78,7.78l0,0C691.52,320.59,688.03,324.07,683.73,324.07z"/>
		<path class="st3" d="M683.73,722.92H324.57c-4.3,0-7.78-3.49-7.78-7.78l0,0c0-4.3,3.49-7.78,7.78-7.78h359.16
			c4.3,0,7.78,3.49,7.78,7.78l0,0C691.52,719.44,688.03,722.92,683.73,722.92z"/>
	</g>
	<g>
		<path class="st1" d="M411.68,777.04l-38.26,23.9L158.27,456.47c-5.35-8.56-2.74-19.83,5.82-25.17l4.63-2.89
			c10.02-6.26,23.21-3.21,29.47,6.81L411.68,777.04z"/>
		<polygon class="st3" points="428.71,830.98 414.23,840.02 373.41,800.93 411.68,777.04 		"/>
		<polygon class="st1" points="414.23,840.02 437.52,861 428.71,830.98 		"/>
		<path class="st2" d="M196.38,432.34c-6.6-10.57-20.52-13.78-31.08-7.18s-13.78,20.52-7.18,31.08"/>
	</g>
	<path class="st4" d="M591.89,196.67h-38.15c0-29.09-23.58-52.67-52.67-52.67s-52.67,23.58-52.67,52.67h-43.68
		c-6.59,0-11.93,5.34-11.93,11.93v30.93h216.56v-25.4C609.35,204.49,601.53,196.67,591.89,196.67z"/>
</g>
</svg>
