<?xml version="1.0" encoding="UTF-8"?>
<svg width="100px" height="100px" viewBox="0 0 100 100" version="1.1" xmlns="http://www.w3.org/2000/svg" xmlns:xlink="http://www.w3.org/1999/xlink">
    <!-- Generator: Sketch 52.5 (67469) - http://www.bohemiancoding.com/sketch -->
    <title>Newlywed Icon</title>
    <desc>Created with Sketch.</desc>
    <defs>
        <circle id="path-1" cx="50" cy="50" r="50"></circle>
        <polygon id="path-3" points="0.605959596 0.7375 10.7554545 0.7375 10.7554545 11.2020833 0.605959596 11.2020833"></polygon>
        <polygon id="path-5" points="0.177979798 0.0870833333 13.2254545 0.0870833333 13.2254545 3.91041667 0.177979798 3.91041667"></polygon>
        <polygon id="path-7" points="0.844949495 0.7559375 22.8530303 0.7559375 22.8530303 18.49375 0.844949495 18.49375"></polygon>
        <polygon id="path-9" points="0.525555556 0.684375 11.5376768 0.684375 11.5376768 4.95208333 0.525555556 4.95208333"></polygon>
        <polygon id="path-11" points="0.329494949 0.760208333 12.0466667 0.760208333 12.0466667 5.99375 0.329494949 5.99375"></polygon>
        <polygon id="path-13" points="0.398787879 0.448645833 16.860404 0.448645833 16.860404 13.2854167 0.398787879 13.2854167"></polygon>
        <polygon id="path-15" points="0.235555556 0.509895833 16.9294949 0.509895833 16.9294949 9.11875 0.235555556 9.11875"></polygon>
    </defs>
    <g id="Page-1" stroke="none" stroke-width="1" fill="none" fill-rule="evenodd">
        <g id="Topics_Section" transform="translate(-1097.000000, -314.000000)">
            <g id="Newlywed-Icon" transform="translate(1097.000000, 314.000000)">
                <mask id="mask-2" fill="white">
                    <use xlink:href="#path-1"></use>
                </mask>
                <use id="Mask" fill="#F4EFE6" xlink:href="#path-1"></use>
                <g id="Group-35" mask="url(#mask-2)">
                    <g transform="translate(-1.000000, 24.000000)">
                        <polygon id="Fill-1" fill="#F87E7E" points="52.5 12.5 58.75 12.5 58.75 1.25 52.5 1.25"></polygon>
                        <polygon id="Fill-2" fill="#F87E7E" points="11.25 51.25 90 51.25 90 17.5 11.25 17.5"></polygon>
                        <polygon id="Fill-3" fill="#F6F5F0" points="22.5 37.5 38.75 37.5 38.75 28.75 22.5 28.75"></polygon>
                        <polygon id="Fill-4" fill="#FCD6D3" points="22.5 38.75 38.75 38.75 38.75 36.25 22.5 36.25"></polygon>
                        <polygon id="Fill-5" fill="#F6F5F0" points="63.75 37.5 80 37.5 80 28.75 63.75 28.75"></polygon>
                        <polygon id="Fill-6" fill="#FCD6D3" points="62.5 38.75 81.25 38.75 81.25 36.25 62.5 36.25"></polygon>
                        <polygon id="Fill-7" fill="#FCD6D3" points="38.3069783 0 11.25 17.5 70 17.5"></polygon>
                        <polygon id="Fill-8" fill="#FCD6D3" points="91.25 17.5 72.6832248 6.25 53.75 17.5"></polygon>
                        <path d="M52.8768788,35 L50.8731212,35 C48.3205832,35 46.25,37.00962 46.25,39.4892001 L46.25,41.3710068 L46.25,46.761783 L46.25,51.25 L50.8731212,51.25 L52.8768788,51.25 L57.5,51.25 L57.5,46.761783 L57.5,41.3710068 L57.5,39.4892001 C57.5,37.00962 55.4304293,35 52.8768788,35" id="Fill-9" fill="#003B57"></path>
                        <g id="Group-32" stroke-width="1" fill="none" transform="translate(0.000000, 33.750000)">
                            <g id="Group-13" transform="translate(23.232323, 7.291667)">
                                <mask id="mask-4" fill="white">
                                    <use xlink:href="#path-3"></use>
                                </mask>
                                <g id="Clip-12"></g>
                                <path d="M10.7554545,5.96875 C10.7554545,3.08020833 8.48373737,0.7375 5.68171717,0.7375 C2.87767677,0.7375 0.605959596,3.08020833 0.605959596,5.96875 C0.605959596,8.859375 2.87767677,11.2020833 5.68171717,11.2020833 C8.48373737,11.2020833 10.7554545,8.859375 10.7554545,5.96875" id="Fill-11" fill="#003B57" mask="url(#mask-4)"></path>
                            </g>
                            <g id="Group-16" transform="translate(24.242424, 14.583333)">
                                <mask id="mask-6" fill="white">
                                    <use xlink:href="#path-5"></use>
                                </mask>
                                <g id="Clip-15"></g>
                                <path d="M13.2254545,6.81416667 C13.2254545,3.09958333 10.3032323,0.0870833333 6.70222222,0.0870833333 C3.09919192,0.0870833333 0.177979798,3.09958333 0.177979798,6.81416667 C0.177979798,10.52875 3.09919192,13.54125 6.70222222,13.54125 C10.3032323,13.54125 13.2254545,10.52875 13.2254545,6.81416667" id="Fill-14" fill="#003B57" mask="url(#mask-6)"></path>
                            </g>
                            <g id="Group-19" transform="translate(6.060606, 0.000000)">
                                <mask id="mask-8" fill="white">
                                    <use xlink:href="#path-7"></use>
                                </mask>
                                <g id="Clip-18"></g>
                                <path d="M22.8530303,12.1038542 C22.8530303,5.83614583 17.9267677,0.7559375 11.8479798,0.7559375 C5.77222222,0.7559375 0.844949495,5.83614583 0.844949495,12.1038542 C0.844949495,18.3726042 5.77222222,23.4528125 11.8479798,23.4528125 C17.9267677,23.4528125 22.8530303,18.3726042 22.8530303,12.1038542" id="Fill-17" fill="#003B57" mask="url(#mask-8)"></path>
                            </g>
                            <g id="Group-22" transform="translate(0.000000, 13.541667)">
                                <mask id="mask-10" fill="white">
                                    <use xlink:href="#path-9"></use>
                                </mask>
                                <g id="Clip-21"></g>
                                <path d="M11.5376768,6.36145833 C11.5376768,3.225 9.0730303,0.684375 6.03161616,0.684375 C2.99121212,0.684375 0.525555556,3.225 0.525555556,6.36145833 C0.525555556,9.49895833 2.99121212,12.0395833 6.03161616,12.0395833 C9.0730303,12.0395833 11.5376768,9.49895833 11.5376768,6.36145833" id="Fill-20" fill="#003B57" mask="url(#mask-10)"></path>
                            </g>
                            <g id="Group-25" transform="translate(62.626263, 12.500000)">
                                <mask id="mask-12" fill="white">
                                    <use xlink:href="#path-11"></use>
                                </mask>
                                <g id="Clip-24"></g>
                                <path d="M12.0466667,6.801875 C12.0466667,3.46645833 9.42343434,0.760208333 6.18808081,0.760208333 C2.95272727,0.760208333 0.329494949,3.46645833 0.329494949,6.801875 C0.329494949,10.1383333 2.95272727,12.8445833 6.18808081,12.8445833 C9.42343434,12.8445833 12.0466667,10.1383333 12.0466667,6.801875" id="Fill-23" fill="#003B57" mask="url(#mask-12)"></path>
                            </g>
                            <g id="Group-28" transform="translate(70.707071, 5.208333)">
                                <mask id="mask-14" fill="white">
                                    <use xlink:href="#path-13"></use>
                                </mask>
                                <g id="Clip-27"></g>
                                <path d="M16.860404,8.93510417 C16.860404,4.24760417 13.1755556,0.448645833 8.63010101,0.448645833 C4.08363636,0.448645833 0.398787879,4.24760417 0.398787879,8.93510417 C0.398787879,13.6236458 4.08363636,17.4226042 8.63010101,17.4226042 C13.1755556,17.4226042 16.860404,13.6236458 16.860404,8.93510417" id="Fill-26" fill="#003B57" mask="url(#mask-14)"></path>
                            </g>
                            <g id="Group-31" transform="translate(82.828283, 9.375000)">
                                <mask id="mask-16" fill="white">
                                    <use xlink:href="#path-15"></use>
                                </mask>
                                <g id="Clip-30"></g>
                                <path d="M16.9294949,9.11927083 C16.9294949,4.36614583 13.1921212,0.509895833 8.5820202,0.509895833 C3.97292929,0.509895833 0.235555556,4.36614583 0.235555556,9.11927083 C0.235555556,13.8734375 3.97292929,17.7286458 8.5820202,17.7286458 C13.1921212,17.7286458 16.9294949,13.8734375 16.9294949,9.11927083" id="Fill-29" fill="#003B57" mask="url(#mask-16)"></path>
                            </g>
                        </g>
                        <path d="M56.25,44.9987399 C56.25,44.3082157 55.6920655,43.75 54.9993703,43.75 C54.309194,43.75 53.75,44.3082157 53.75,44.9987399 C53.75,45.6905242 54.309194,46.25 54.9993703,46.25 C55.6920655,46.25 56.25,45.6905242 56.25,44.9987399" id="Fill-33" fill="#FCD6D3"></path>
                    </g>
                </g>
            </g>
        </g>
    </g>
</svg>