<?xml version="1.0" encoding="UTF-8"?>
<svg width="100px" height="100px" viewBox="0 0 100 100" version="1.1" xmlns="http://www.w3.org/2000/svg" xmlns:xlink="http://www.w3.org/1999/xlink">
    <!-- Generator: Sketch 52.5 (67469) - http://www.bohemiancoding.com/sketch -->
    <title>Wedding Party Icon</title>
    <desc>Created with Sketch.</desc>
    <defs>
        <circle id="path-1" cx="50" cy="50" r="50"></circle>
        <polygon id="path-3" points="0 106.929 160.559 106.929 160.559 0 0 0"></polygon>
    </defs>
    <g id="Page-1" stroke="none" stroke-width="1" fill="none" fill-rule="evenodd">
        <g id="Topics_Section" transform="translate(-590.000000, -314.000000)">
            <g id="Topics-Block" transform="translate(50.000000, 49.000000)">
                <g id="Wedding-Party" transform="translate(517.000000, 265.000000)">
                    <g id="Wedding-Party-Icon" transform="translate(23.000000, 0.000000)">
                        <mask id="mask-2" fill="white">
                            <use xlink:href="#path-1"></use>
                        </mask>
                        <use id="Mask" fill="#F4EFE6" xlink:href="#path-1"></use>
                        <g id="Group-27" mask="url(#mask-2)">
                            <g transform="translate(-30.000000, 17.000000)">
                                <path d="M47.4364,55.2781 L26.6254,55.2781 L19.2304,19.3061 C19.1524,18.9271 19.3344,18.5421 19.6764,18.3621 L26.4254,14.8091 C27.0024,14.5071 27.7174,14.7411 28.0024,15.3271 L47.4364,55.2781 Z" id="Fill-1" stroke="none" fill="#F8C4C2" fill-rule="evenodd"></path>
                                <path d="M33.3238,55.2781 L54.1348,55.2781 L61.5298,19.3061 C61.6078,18.9271 61.4258,18.5421 61.0838,18.3621 L54.3348,14.8091 C53.7578,14.5071 53.0438,14.7411 52.7578,15.3271 L33.3238,55.2781 Z" id="Fill-3" stroke="none" fill="#F8C4C2" fill-rule="evenodd"></path>
                                <polygon id="Fill-5" stroke="none" fill="#F8C4C2" fill-rule="evenodd" points="26.625 55.2783 0 90.8173 40.324 106.9283 40.324 52.0073"></polygon>
                                <polygon id="Fill-7" stroke="none" fill="#F8C4C2" fill-rule="evenodd" points="54.0234 55.2783 82.3974 91.5863 40.3244 106.9283 40.3244 52.0073"></polygon>
                                <mask id="mask-4" fill="white">
                                    <use xlink:href="#path-3"></use>
                                </mask>
                                <g id="Clip-10" stroke="none" fill="none"></g>
                                <polygon id="Fill-9" stroke="none" fill="#FCD6D3" fill-rule="evenodd" mask="url(#mask-4)" points="26.387 56.535 53.933 56.535 53.933 54.122 26.387 54.122"></polygon>
                                <polygon id="Fill-11" stroke="none" fill="#F99B9A" fill-rule="evenodd" mask="url(#mask-4)" points="71.1758 95.6787 55.3378 71.6647 65.5138 100.9547"></polygon>
                                <path d="M113.1226,55.2781 L133.9336,55.2781 L141.3286,19.3061 C141.4066,18.9271 141.2246,18.5421 140.8826,18.3621 L134.1336,14.8091 C133.5566,14.5071 132.8416,14.7411 132.5566,15.3271 L113.1226,55.2781 Z" id="Fill-12" stroke="none" fill="#F8C4C2" fill-rule="evenodd" mask="url(#mask-4)"></path>
                                <path d="M127.2353,55.2781 L106.4233,55.2781 L99.0293,19.3061 C98.9513,18.9271 99.1333,18.5421 99.4753,18.3621 L106.2243,14.8091 C106.8013,14.5071 107.5153,14.7411 107.8013,15.3271 L127.2353,55.2781 Z" id="Fill-13" stroke="none" fill="#F8C4C2" fill-rule="evenodd" mask="url(#mask-4)"></path>
                                <polygon id="Fill-14" stroke="none" fill="#F8C4C2" fill-rule="evenodd" mask="url(#mask-4)" points="133.9341 55.2783 160.5591 90.8173 120.2351 106.9283 120.2351 52.0073"></polygon>
                                <polygon id="Fill-15" stroke="none" fill="#F8C4C2" fill-rule="evenodd" mask="url(#mask-4)" points="106.5356 55.2783 78.1616 91.5863 120.2346 106.9283 120.2346 52.0073"></polygon>
                                <polygon id="Fill-16" stroke="none" fill="#FCD6D3" fill-rule="evenodd" mask="url(#mask-4)" points="106.625 56.535 134.172 56.535 134.172 54.122 106.625 54.122"></polygon>
                                <polygon id="Fill-17" stroke="none" fill="#F99B9A" fill-rule="evenodd" mask="url(#mask-4)" points="89.3828 95.6787 105.2218 71.6647 95.0448 100.9547"></polygon>
                                <path d="M87.0292,40.6024 L66.2172,40.6024 L58.8232,4.6294 C58.7452,4.2504 58.9272,3.8654 59.2692,3.6854 L66.0182,0.1324 C66.5952,-0.1696 67.3092,0.0644 67.5952,0.6504 L87.0292,40.6024 Z" id="Fill-18" stroke="none" fill="#FCD6D3" fill-rule="evenodd" mask="url(#mask-4)"></path>
                                <path d="M92.3506,0.6504 L72.9166,40.6024 L93.7276,40.6024 L101.1226,4.6294 C101.2006,4.2504 101.0186,3.8654 100.6766,3.6854 L93.9276,0.1324 C93.3506,-0.1696 92.6356,0.0644 92.3506,0.6504" id="Fill-19" stroke="none" fill="#FCD6D3" fill-rule="evenodd" mask="url(#mask-4)"></path>
                                <polygon id="Fill-20" stroke="none" fill="#FCD6D3" fill-rule="evenodd" mask="url(#mask-4)" points="66.2173 40.6025 39.5923 76.1405 79.9163 92.2515 79.9163 37.3315"></polygon>
                                <polygon id="Fill-21" stroke="none" fill="#FCD6D3" fill-rule="evenodd" mask="url(#mask-4)" points="93.6157 40.6025 121.9907 76.9095 79.9167 92.2515 79.9167 37.3315"></polygon>
                                <polygon id="Fill-22" stroke="none" fill="#F99B9A" fill-rule="evenodd" mask="url(#mask-4)" points="65.979 41.858 93.526 41.858 93.526 39.445 65.979 39.445"></polygon>
                                <polygon id="Fill-23" stroke="none" fill="#F99B9A" fill-rule="evenodd" mask="url(#mask-4)" points="110.7685 81.0019 94.9295 56.9889 105.1065 86.2789"></polygon>
                                <path d="M69.4722,40.7656 C69.4662,40.7616 69.4602,40.7556 69.4542,40.7516 C69.4482,40.7476 69.4412,40.7456 69.4342,40.7436 C69.4322,40.7366 69.4322,40.7286 69.4302,40.7216 C69.4282,40.7136 69.4262,40.7066 69.4242,40.7016 C69.4272,40.6946 69.4322,40.6896 69.4352,40.6826 C69.4392,40.6746 69.4422,40.6686 69.4462,40.6616 C69.4532,40.6616 69.4602,40.6606 69.4672,40.6596 C69.4742,40.6576 69.4812,40.6546 69.4882,40.6526 C69.4942,40.6566 69.5002,40.6606 69.5062,40.6626 C69.5132,40.6666 69.5192,40.6696 69.5262,40.6726 C69.5272,40.6816 69.5282,40.6886 69.5302,40.6956 C69.5322,40.7036 69.5342,40.7076 69.5362,40.7156 C69.5332,40.7226 69.5282,40.7286 69.5252,40.7346 C69.5212,40.7416 69.5182,40.7466 69.5142,40.7526 C69.5072,40.7546 69.5002,40.7556 69.4932,40.7586 C69.4862,40.7606 69.4792,40.7636 69.4722,40.7656 M73.2982,45.2806 L77.4822,45.8506 C77.8462,45.9006 78.0892,45.4866 77.8682,45.1926 L75.3322,41.8196 C75.1962,41.6376 75.2312,41.3776 75.4122,41.2416 L78.7742,38.6866 C79.0672,38.4626 78.9462,37.9976 78.5822,37.9476 L74.4012,37.3556 C74.1762,37.3236 74.0192,37.1156 74.0502,36.8896 L74.6212,32.7056 C74.6712,32.3426 74.2572,32.0996 73.9632,32.3206 L70.5882,34.8566 C70.4062,34.9936 70.1472,34.9556 70.0102,34.7756 L67.4572,31.4136 C67.2352,31.1206 66.7702,31.2436 66.7192,31.6066 L66.1252,35.7866 C66.0932,36.0126 65.8852,36.1686 65.6592,36.1386 L61.4782,35.5676 C61.1142,35.5176 60.8702,35.9316 61.0912,36.2256 L63.6282,39.6016 C63.7642,39.7836 63.7282,40.0396 63.5472,40.1786 L60.1862,42.7316 C59.8932,42.9536 60.0142,43.4176 60.3782,43.4706 L64.5562,44.0636 C64.7822,44.0956 64.9392,44.3036 64.9082,44.5296 L64.3382,48.7096 C64.2882,49.0756 64.7032,49.3186 64.9962,49.0966 L68.3692,46.5606 C68.5522,46.4226 68.8102,46.4586 68.9482,46.6416 L71.5022,50.0016 C71.7252,50.2936 72.1902,50.1746 72.2412,49.8106 L72.8332,45.6306 C72.8652,45.4066 73.0732,45.2476 73.2982,45.2806" id="Fill-24" stroke="none" fill="#003B57" fill-rule="evenodd" mask="url(#mask-4)"></path>
                                <path d="M69.4516,40.7578 C69.4476,40.7518 69.4436,40.7448 69.4396,40.7388 C69.4346,40.7348 69.4296,40.7298 69.4256,40.7238 C69.4266,40.7168 69.4286,40.7098 69.4286,40.7008 C69.4296,40.6958 69.4296,40.6878 69.4306,40.6808 C69.4366,40.6758 69.4426,40.6728 69.4486,40.6678 C69.4546,40.6618 69.4596,40.6568 69.4656,40.6538 C69.4726,40.6538 69.4796,40.6548 69.4866,40.6558 C69.4936,40.6568 69.5006,40.6568 69.5086,40.6578 C69.5136,40.6638 69.5166,40.6708 69.5206,40.6768 C69.5256,40.6828 69.5306,40.6878 69.5346,40.6938 C69.5346,40.6998 69.5326,40.7078 69.5316,40.7148 C69.5306,40.7228 69.5306,40.7298 69.5296,40.7368 C69.5236,40.7398 69.5176,40.7438 69.5116,40.7488 C69.5056,40.7538 69.5006,40.7588 69.4946,40.7638 C69.4876,40.7628 69.4806,40.7608 69.4736,40.7598 C69.4666,40.7588 69.4586,40.7588 69.4516,40.7578 M71.3756,46.4028 L74.8696,48.3878 C75.2356,48.5948 75.6706,48.2588 75.5606,47.8528 L74.5146,43.9738 C74.4466,43.7228 74.5956,43.4638 74.8466,43.3948 L78.7216,42.3258 C79.1266,42.2158 79.1956,41.6698 78.8306,41.4598 L75.3476,39.4558 C75.1216,39.3258 75.0426,39.0378 75.1716,38.8128 L77.1586,35.3188 C77.3666,34.9518 77.0296,34.5178 76.6236,34.6268 L72.7436,35.6728 C72.4916,35.7388 72.2326,35.5928 72.1626,35.3408 L71.0976,31.4678 C70.9866,31.0628 70.4406,30.9918 70.2306,31.3578 L68.2266,34.8408 C68.0966,35.0668 67.8086,35.1448 67.5816,35.0158 L64.0906,33.0288 C63.7246,32.8208 63.2896,33.1578 63.3986,33.5658 L64.4446,37.4448 C64.5126,37.6958 64.3636,37.9548 64.1126,38.0258 L60.2396,39.0908 C59.8336,39.2008 59.7636,39.7468 60.1286,39.9578 L63.6106,41.9618 C63.8356,42.0918 63.9146,42.3788 63.7856,42.6058 L61.8016,46.0988 C61.5936,46.4638 61.9306,46.8998 62.3366,46.7888 L66.2146,45.7418 C66.4666,45.6758 66.7256,45.8218 66.7946,46.0738 L67.8616,49.9478 C67.9726,50.3558 68.5186,50.4248 68.7286,50.0598 L70.7306,46.5768 C70.8606,46.3518 71.1486,46.2738 71.3756,46.4028" id="Fill-25" stroke="none" fill="#003B57" fill-rule="evenodd" mask="url(#mask-4)"></path>
                                <path d="M71.7129,42.081 C72.4399,40.844 72.0249,39.251 70.7879,38.523 C69.5509,37.798 67.9589,38.212 67.2319,39.448 C66.5049,40.685 66.9189,42.278 68.1569,43.006 C69.3939,43.731 70.9859,43.317 71.7129,42.081" id="Fill-26" stroke="none" fill="#F99B9A" fill-rule="evenodd" mask="url(#mask-4)"></path>
                            </g>
                        </g>
                    </g>
                </g>
            </g>
        </g>
    </g>
</svg>