<svg xmlns="http://www.w3.org/2000/svg" xmlns:xlink="http://www.w3.org/1999/xlink" viewBox="0 0 114.17 114.17"><defs><style>.cls-1{fill:none;}.cls-2{fill:#f6f5f0;}.cls-3{fill:#003b57;}.cls-4{fill:#01b4c0;}.cls-5{clip-path:url(#clip-path);}.cls-6{fill:#179caa;}.cls-7{fill:#c5e3ea;}</style><clipPath id="clip-path"><path class="cls-1" d="M100.08,37.4l-3.62-1.3a20.47,20.47,0,0,0-15.06.5L62.61,44.77h0L20.37,63.13a1,1,0,0,0-.49,1.26h0a16.18,16.18,0,0,0,21.29,8.39L89.86,51.61h0L100.4,47A5.18,5.18,0,0,0,100.08,37.4Z"/></clipPath></defs><title>Airplane &amp;amp; Honeymoon</title><g id="Layer_2" data-name="Layer 2"><g id="Layer_1-2" data-name="Layer 1"><circle class="cls-2" cx="57.09" cy="57.09" r="57.09"/><path class="cls-3" d="M19.88,64.39h0c-.21-.48.27-.82.76-1l13.07-5.88L15.86,49.09a1.66,1.66,0,0,0-1.56.07L13,49.89a1.68,1.68,0,0,0-.58,2.32l7.84,13C20.16,65,20,64.68,19.88,64.39Z"/><path class="cls-3" d="M70.71,40.24,48.67,33a.94.94,0,0,0-.7,0L41,36A1,1,0,0,0,41,37.78l2.77,1.48a1.5,1.5,0,0,0,1.48,2.6l.21-.09,1-.43.65-.29L58.52,47.2a1,1,0,0,0,.87,0l11.42-5.17A1,1,0,0,0,70.71,40.24Z"/><path class="cls-4" d="M100.08,37.4l-3.62-1.3a20.47,20.47,0,0,0-15.06.5L62.61,44.77h0L19.35,63.64l.93,1.56a16.17,16.17,0,0,0,20.89,7.58L89.86,51.61h0L100.4,47A5.18,5.18,0,0,0,100.08,37.4Z"/><g class="cls-5"><path class="cls-6" d="M18.05,74.2l18.18-7.32L73.21,52c4.06-1.64,8.22-3.86,12.57-4.47a19.5,19.5,0,0,1,14.44,3.35c.08.06-2.75,1.55-3,1.69l-3,1.52-6.75,3.35L72.17,65,42,80,25.83,88l-.23.12Z"/></g><path class="cls-7" d="M52.18,90.45A4.43,4.43,0,0,0,54.91,85v0a4.38,4.38,0,0,0-1.58-2.2,4.23,4.23,0,0,0-1.22-.61A4,4,0,0,0,52.76,81a4.37,4.37,0,0,0-7-4.75c-2.1,1.91-3.74,8.5-3.74,8.5s.63.81,1,1.25a21.88,21.88,0,0,0,3.49,3C48.18,90.11,50.18,91.16,52.18,90.45Z"/><path class="cls-7" d="M35.75,93.09a3.08,3.08,0,0,0,1.9-3.79v0a3.08,3.08,0,0,0-1.11-1.54,2.81,2.81,0,0,0-.85-.42,2.93,2.93,0,0,0,.46-.83,3.07,3.07,0,0,0,0-1.92,3.07,3.07,0,0,0-4.92-1.4c-1.47,1.33-2.61,5.93-2.61,5.93a10.73,10.73,0,0,0,.73.87,14.78,14.78,0,0,0,2.43,2.11C33,92.86,34.34,93.59,35.75,93.09Z"/><path class="cls-7" d="M39.54,48.25a3.05,3.05,0,0,0,1.89-3.76h0A3.14,3.14,0,0,0,40.33,43a3.3,3.3,0,0,0-.84-.42,2.85,2.85,0,0,0,.45-.82,3,3,0,0,0,0-1.9,3.16,3.16,0,0,0-.66-1.15,3,3,0,0,0-4.22-.24c-1.45,1.32-2.59,5.88-2.59,5.88s.44.56.73.87a16,16,0,0,0,2.41,2.09C36.77,48,38.15,48.75,39.54,48.25Z"/><path class="cls-7" d="M28.16,50.08a2.12,2.12,0,0,0,1.32-2.62h0a2.14,2.14,0,0,0-.77-1.07,1.91,1.91,0,0,0-.59-.29,1.94,1.94,0,0,0,.32-.58,2.13,2.13,0,0,0,0-1.32,2.33,2.33,0,0,0-.46-.81,2.1,2.1,0,0,0-3-.17c-1,.92-1.8,4.11-1.8,4.11s.3.39.5.61a10.67,10.67,0,0,0,1.69,1.46A3.07,3.07,0,0,0,28.16,50.08Z"/><path class="cls-3" d="M75.73,50.91l-12.31,5a1.48,1.48,0,0,0-.92,1.34L62,75.73l-1.69.75-1.43.62-.3.14a2.17,2.17,0,1,0,1.74,4l.3-.13,1.26-.56-.15,5.85a1.48,1.48,0,0,0,2.29,1.27l5.23-3.42a1.45,1.45,0,0,0,.62-.87l7.81-30.71A1.48,1.48,0,0,0,75.73,50.91Z"/></g></g></svg>